STARTFONT 2.1
FONT -FontForge-eWorldTight_18-Regular-R-Normal--18-180-72-72-P-74-MacRoman-0
SIZE 18 72 72
FONTBOUNDINGBOX 256 18 -2 -5
COMMENT "Generated by fontforge, http://fontforge.sourceforge.net"
STARTPROPERTIES 32
FOUNDRY "FontForge"
FAMILY_NAME "eWorldTight_18"
WEIGHT_NAME "Regular"
SLANT "R"
SETWIDTH_NAME "Normal"
ADD_STYLE_NAME ""
PIXEL_SIZE 18
POINT_SIZE 180
RESOLUTION_X 72
RESOLUTION_Y 72
SPACING "P"
AVERAGE_WIDTH 74
CHARSET_REGISTRY "MacRoman"
CHARSET_ENCODING "0"
FONTNAME_REGISTRY ""
CHARSET_COLLECTIONS "MacRoman"
FONT_NAME "eWorldTight_18"
FACE_NAME "eWorldTight_18"
COPYRIGHT ""
FONT_VERSION "001.000"
FONT_ASCENT 13
FONT_DESCENT 5
UNDERLINE_POSITION -2
UNDERLINE_THICKNESS 1
X_HEIGHT 8
CAP_HEIGHT 11
RAW_ASCENT 800
RAW_DESCENT 200
NORM_SPACE 3
FIGURE_WIDTH 6
AVG_LOWERCASE_WIDTH 57
AVG_UPPERCASE_WIDTH 59
ENDPROPERTIES
CHARS 225
STARTCHAR uni001E
ENCODING 30
SWIDTH 722 0
DWIDTH 13 0
BBX 11 12 1 0
BITMAP
0300
0700
0600
75C0
FFE0
FFC0
FF80
FF80
FFC0
FFE0
7FC0
3B80
ENDCHAR
STARTCHAR uni001F
ENCODING 31
SWIDTH 166 0
DWIDTH 7 0
BBX 5 3 1 10
BITMAP
D8
D8
D8
ENDCHAR
STARTCHAR space
ENCODING 32
SWIDTH 166 0
DWIDTH 3 0
BBX 1 1 0 -5
BITMAP
00
ENDCHAR
STARTCHAR exclam
ENCODING 33
SWIDTH 204 0
DWIDTH 4 0
BBX 2 12 1 0
BITMAP
C0
C0
C0
C0
C0
C0
C0
C0
00
00
C0
C0
ENDCHAR
STARTCHAR quotedbl
ENCODING 34
SWIDTH 333 0
DWIDTH 6 0
BBX 5 3 0 9
BITMAP
D8
D8
D8
ENDCHAR
STARTCHAR numbersign
ENCODING 35
SWIDTH 333 0
DWIDTH 6 0
BBX 5 12 0 0
BITMAP
50
50
F8
F8
50
50
50
F8
F8
50
50
50
ENDCHAR
STARTCHAR dollar
ENCODING 36
SWIDTH 333 0
DWIDTH 6 0
BBX 5 15 0 -2
BITMAP
20
20
70
F8
D8
D8
E0
70
38
D8
D8
F8
70
20
20
ENDCHAR
STARTCHAR percent
ENCODING 37
SWIDTH 500 0
DWIDTH 9 0
BBX 7 12 1 0
BITMAP
42
E4
A4
A8
E8
50
14
2E
4A
4A
8E
84
ENDCHAR
STARTCHAR ampersand
ENCODING 38
SWIDTH 389 0
DWIDTH 8 0
BBX 7 12 0 0
BITMAP
70
F8
D8
D8
F8
70
F6
DE
CC
DC
FE
76
ENDCHAR
STARTCHAR quotesingle
ENCODING 39
SWIDTH 222 0
DWIDTH 4 0
BBX 2 3 1 9
BITMAP
C0
C0
C0
ENDCHAR
STARTCHAR parenleft
ENCODING 40
SWIDTH 167 0
DWIDTH 4 0
BBX 3 13 0 -1
BITMAP
60
60
60
C0
C0
C0
C0
C0
C0
C0
60
60
60
ENDCHAR
STARTCHAR parenright
ENCODING 41
SWIDTH 167 0
DWIDTH 4 0
BBX 3 13 0 -1
BITMAP
C0
C0
C0
60
60
60
60
60
60
60
C0
C0
C0
ENDCHAR
STARTCHAR asterisk
ENCODING 42
SWIDTH 315 0
DWIDTH 6 0
BBX 5 4 0 8
BITMAP
A8
F8
70
D8
ENDCHAR
STARTCHAR plus
ENCODING 43
SWIDTH 500 0
DWIDTH 11 0
BBX 10 10 0 0
BITMAP
0C00
0C00
0C00
0C00
FFC0
FFC0
0C00
0C00
0C00
0C00
ENDCHAR
STARTCHAR comma
ENCODING 44
SWIDTH 166 0
DWIDTH 3 0
BBX 3 3 -1 -1
BITMAP
60
60
C0
ENDCHAR
STARTCHAR hyphen
ENCODING 45
SWIDTH 166 0
DWIDTH 4 0
BBX 3 2 0 4
BITMAP
E0
E0
ENDCHAR
STARTCHAR period
ENCODING 46
SWIDTH 166 0
DWIDTH 3 0
BBX 2 2 0 0
BITMAP
C0
C0
ENDCHAR
STARTCHAR slash
ENCODING 47
SWIDTH 278 0
DWIDTH 5 0
BBX 5 12 0 0
BITMAP
18
18
10
30
30
20
60
60
40
40
C0
C0
ENDCHAR
STARTCHAR zero
ENCODING 48
SWIDTH 333 0
DWIDTH 6 0
BBX 5 12 0 0
BITMAP
70
F8
D8
D8
D8
D8
D8
D8
D8
D8
F8
70
ENDCHAR
STARTCHAR one
ENCODING 49
SWIDTH 333 0
DWIDTH 6 0
BBX 4 12 0 0
BITMAP
30
F0
F0
30
30
30
30
30
30
30
30
30
ENDCHAR
STARTCHAR two
ENCODING 50
SWIDTH 333 0
DWIDTH 6 0
BBX 5 12 0 0
BITMAP
70
F8
D8
D8
18
38
70
60
E0
C0
F8
F8
ENDCHAR
STARTCHAR three
ENCODING 51
SWIDTH 333 0
DWIDTH 6 0
BBX 5 12 0 0
BITMAP
70
F8
D8
D8
38
30
38
18
D8
D8
F8
70
ENDCHAR
STARTCHAR four
ENCODING 52
SWIDTH 333 0
DWIDTH 6 0
BBX 6 12 0 0
BITMAP
18
38
38
78
58
D8
D8
FC
FC
18
18
18
ENDCHAR
STARTCHAR five
ENCODING 53
SWIDTH 333 0
DWIDTH 6 0
BBX 5 12 0 0
BITMAP
F8
F8
C0
F0
F8
D8
18
D8
D8
D8
F8
70
ENDCHAR
STARTCHAR six
ENCODING 54
SWIDTH 333 0
DWIDTH 6 0
BBX 5 12 0 0
BITMAP
70
F8
D8
C0
F0
F8
D8
D8
D8
D8
F8
70
ENDCHAR
STARTCHAR seven
ENCODING 55
SWIDTH 333 0
DWIDTH 6 0
BBX 5 12 0 0
BITMAP
F8
F8
18
30
30
30
60
60
60
C0
C0
C0
ENDCHAR
STARTCHAR eight
ENCODING 56
SWIDTH 333 0
DWIDTH 6 0
BBX 5 12 0 0
BITMAP
70
F8
D8
D8
70
F8
D8
D8
D8
D8
F8
70
ENDCHAR
STARTCHAR nine
ENCODING 57
SWIDTH 333 0
DWIDTH 6 0
BBX 5 12 0 0
BITMAP
70
F8
D8
D8
D8
D8
F8
78
18
D8
F8
70
ENDCHAR
STARTCHAR colon
ENCODING 58
SWIDTH 166 0
DWIDTH 3 0
BBX 2 9 0 0
BITMAP
C0
C0
00
00
00
00
00
C0
C0
ENDCHAR
STARTCHAR semicolon
ENCODING 59
SWIDTH 166 0
DWIDTH 3 0
BBX 3 10 -1 -1
BITMAP
60
60
00
00
00
00
00
60
60
C0
ENDCHAR
STARTCHAR less
ENCODING 60
SWIDTH 500 0
DWIDTH 11 0
BBX 8 10 1 0
BITMAP
01
07
1E
38
E0
E0
38
1E
07
01
ENDCHAR
STARTCHAR equal
ENCODING 61
SWIDTH 500 0
DWIDTH 11 0
BBX 10 5 0 2
BITMAP
FFC0
FFC0
0000
FFC0
FFC0
ENDCHAR
STARTCHAR greater
ENCODING 62
SWIDTH 500 0
DWIDTH 11 0
BBX 8 10 1 0
BITMAP
80
E0
78
1C
07
07
1C
78
E0
80
ENDCHAR
STARTCHAR question
ENCODING 63
SWIDTH 333 0
DWIDTH 6 0
BBX 5 12 0 0
BITMAP
70
F8
D8
D8
18
30
60
60
60
00
60
60
ENDCHAR
STARTCHAR at
ENCODING 64
SWIDTH 800 0
DWIDTH 15 0
BBX 12 12 1 0
BITMAP
1F80
7FE0
7060
E730
CFB0
D9B0
D9B0
CFE0
E6C0
7000
7FC0
1F80
ENDCHAR
STARTCHAR A
ENCODING 65
SWIDTH 333 0
DWIDTH 6 0
BBX 5 12 0 0
BITMAP
70
70
70
D8
D8
D8
D8
F8
F8
D8
D8
D8
ENDCHAR
STARTCHAR B
ENCODING 66
SWIDTH 333 0
DWIDTH 6 0
BBX 5 12 0 0
BITMAP
F0
F8
D8
D8
D8
F0
D8
D8
D8
D8
F8
F0
ENDCHAR
STARTCHAR C
ENCODING 67
SWIDTH 333 0
DWIDTH 6 0
BBX 5 12 0 0
BITMAP
70
F8
D8
D8
C0
C0
C0
D8
D8
D8
F8
70
ENDCHAR
STARTCHAR D
ENCODING 68
SWIDTH 333 0
DWIDTH 6 0
BBX 5 12 0 0
BITMAP
F0
F8
D8
D8
D8
D8
D8
D8
D8
D8
F8
F0
ENDCHAR
STARTCHAR E
ENCODING 69
SWIDTH 278 0
DWIDTH 5 0
BBX 4 12 0 0
BITMAP
F0
F0
C0
C0
F0
F0
C0
C0
C0
C0
F0
F0
ENDCHAR
STARTCHAR F
ENCODING 70
SWIDTH 278 0
DWIDTH 5 0
BBX 4 12 0 0
BITMAP
F0
F0
C0
C0
F0
F0
C0
C0
C0
C0
C0
C0
ENDCHAR
STARTCHAR G
ENCODING 71
SWIDTH 333 0
DWIDTH 6 0
BBX 5 12 0 0
BITMAP
70
F8
D8
C0
C0
F8
F8
D8
D8
D8
F8
68
ENDCHAR
STARTCHAR H
ENCODING 72
SWIDTH 333 0
DWIDTH 6 0
BBX 5 12 0 0
BITMAP
D8
D8
D8
D8
F8
F8
D8
D8
D8
D8
D8
D8
ENDCHAR
STARTCHAR I
ENCODING 73
SWIDTH 167 0
DWIDTH 3 0
BBX 2 12 0 0
BITMAP
C0
C0
C0
C0
C0
C0
C0
C0
C0
C0
C0
C0
ENDCHAR
STARTCHAR J
ENCODING 74
SWIDTH 333 0
DWIDTH 6 0
BBX 5 12 0 0
BITMAP
18
18
18
18
18
18
D8
D8
D8
D8
F8
70
ENDCHAR
STARTCHAR K
ENCODING 75
SWIDTH 333 0
DWIDTH 6 0
BBX 5 12 0 0
BITMAP
D8
D8
D8
F0
F0
E0
F0
D0
D8
D8
D8
D8
ENDCHAR
STARTCHAR L
ENCODING 76
SWIDTH 278 0
DWIDTH 5 0
BBX 4 12 0 0
BITMAP
C0
C0
C0
C0
C0
C0
C0
C0
C0
C0
F0
F0
ENDCHAR
STARTCHAR M
ENCODING 77
SWIDTH 481 0
DWIDTH 9 0
BBX 8 12 0 0
BITMAP
C3
C3
E7
E7
FF
FF
DB
DB
DB
DB
DB
DB
ENDCHAR
STARTCHAR N
ENCODING 78
SWIDTH 389 0
DWIDTH 7 0
BBX 6 12 0 0
BITMAP
CC
CC
EC
EC
EC
DC
DC
DC
DC
CC
CC
CC
ENDCHAR
STARTCHAR O
ENCODING 79
SWIDTH 333 0
DWIDTH 6 0
BBX 5 12 0 0
BITMAP
70
F8
D8
D8
D8
D8
D8
D8
D8
D8
F8
70
ENDCHAR
STARTCHAR P
ENCODING 80
SWIDTH 333 0
DWIDTH 6 0
BBX 5 12 0 0
BITMAP
F0
F8
D8
D8
D8
F8
F0
C0
C0
C0
C0
C0
ENDCHAR
STARTCHAR Q
ENCODING 81
SWIDTH 333 0
DWIDTH 6 0
BBX 5 13 0 -1
BITMAP
70
F8
D8
D8
D8
D8
D8
D8
D8
D8
F8
70
18
ENDCHAR
STARTCHAR R
ENCODING 82
SWIDTH 333 0
DWIDTH 6 0
BBX 5 12 0 0
BITMAP
F0
F8
D8
D8
D8
F0
F0
D8
D8
D8
D8
D8
ENDCHAR
STARTCHAR S
ENCODING 83
SWIDTH 333 0
DWIDTH 6 0
BBX 5 12 0 0
BITMAP
70
F8
D8
D8
E0
70
30
38
D8
D8
F8
70
ENDCHAR
STARTCHAR T
ENCODING 84
SWIDTH 315 0
DWIDTH 5 0
BBX 4 12 0 0
BITMAP
F0
F0
60
60
60
60
60
60
60
60
60
60
ENDCHAR
STARTCHAR U
ENCODING 85
SWIDTH 333 0
DWIDTH 6 0
BBX 5 12 0 0
BITMAP
D8
D8
D8
D8
D8
D8
D8
D8
D8
D8
F8
70
ENDCHAR
STARTCHAR V
ENCODING 86
SWIDTH 333 0
DWIDTH 6 0
BBX 5 12 0 0
BITMAP
D8
D8
D8
D8
D8
D8
D8
D8
D8
70
70
20
ENDCHAR
STARTCHAR W
ENCODING 87
SWIDTH 481 0
DWIDTH 9 0
BBX 8 12 0 0
BITMAP
DB
DB
DB
DB
DB
DB
DB
FF
7E
66
66
24
ENDCHAR
STARTCHAR X
ENCODING 88
SWIDTH 333 0
DWIDTH 6 0
BBX 5 12 0 0
BITMAP
D8
D8
D8
D8
D8
70
70
D8
D8
D8
D8
D8
ENDCHAR
STARTCHAR Y
ENCODING 89
SWIDTH 333 0
DWIDTH 6 0
BBX 5 12 0 0
BITMAP
D8
D8
D8
D8
D8
F8
70
30
30
30
30
30
ENDCHAR
STARTCHAR Z
ENCODING 90
SWIDTH 259 0
DWIDTH 5 0
BBX 4 12 0 0
BITMAP
F0
F0
30
30
60
60
60
60
C0
C0
F0
F0
ENDCHAR
STARTCHAR bracketleft
ENCODING 91
SWIDTH 222 0
DWIDTH 4 0
BBX 3 13 0 -1
BITMAP
E0
C0
C0
C0
C0
C0
C0
C0
C0
C0
C0
C0
E0
ENDCHAR
STARTCHAR backslash
ENCODING 92
SWIDTH 278 0
DWIDTH 5 0
BBX 5 12 0 0
BITMAP
C0
C0
40
60
60
20
30
30
10
18
18
08
ENDCHAR
STARTCHAR bracketright
ENCODING 93
SWIDTH 222 0
DWIDTH 4 0
BBX 3 13 0 -1
BITMAP
E0
60
60
60
60
60
60
60
60
60
60
60
E0
ENDCHAR
STARTCHAR asciicircum
ENCODING 94
SWIDTH 500 0
DWIDTH 11 0
BBX 8 7 1 5
BITMAP
18
3C
3C
66
66
C3
C3
ENDCHAR
STARTCHAR underscore
ENCODING 95
SWIDTH 500 0
DWIDTH 9 0
BBX 9 1 0 -2
BITMAP
FF80
ENDCHAR
STARTCHAR grave
ENCODING 96
SWIDTH 148 0
DWIDTH 3 0
BBX 4 3 -1 10
BITMAP
C0
60
30
ENDCHAR
STARTCHAR a
ENCODING 97
SWIDTH 278 0
DWIDTH 6 0
BBX 5 9 0 0
BITMAP
70
F8
D8
38
78
D8
D8
F8
68
ENDCHAR
STARTCHAR b
ENCODING 98
SWIDTH 278 0
DWIDTH 6 0
BBX 5 12 0 0
BITMAP
C0
C0
C0
F0
F8
D8
D8
D8
D8
D8
F8
B0
ENDCHAR
STARTCHAR c
ENCODING 99
SWIDTH 278 0
DWIDTH 6 0
BBX 5 9 0 0
BITMAP
70
F8
D8
C0
C0
D8
D8
F8
70
ENDCHAR
STARTCHAR d
ENCODING 100
SWIDTH 278 0
DWIDTH 6 0
BBX 5 12 0 0
BITMAP
18
18
18
78
F8
D8
D8
D8
D8
D8
F8
68
ENDCHAR
STARTCHAR e
ENCODING 101
SWIDTH 278 0
DWIDTH 6 0
BBX 5 9 0 0
BITMAP
70
F8
D8
D8
F8
C0
D8
F8
70
ENDCHAR
STARTCHAR f
ENCODING 102
SWIDTH 167 0
DWIDTH 3 0
BBX 4 12 -1 0
BITMAP
30
70
60
F0
F0
60
60
60
60
60
60
60
ENDCHAR
STARTCHAR g
ENCODING 103
SWIDTH 278 0
DWIDTH 6 0
BBX 5 11 0 -2
BITMAP
68
F8
D8
D8
D8
D8
F8
78
18
F8
70
ENDCHAR
STARTCHAR h
ENCODING 104
SWIDTH 278 0
DWIDTH 6 0
BBX 5 12 0 0
BITMAP
C0
C0
C0
F0
F8
D8
D8
D8
D8
D8
D8
D8
ENDCHAR
STARTCHAR i
ENCODING 105
SWIDTH 148 0
DWIDTH 3 0
BBX 2 12 0 0
BITMAP
C0
C0
00
C0
C0
C0
C0
C0
C0
C0
C0
C0
ENDCHAR
STARTCHAR j
ENCODING 106
SWIDTH 148 0
DWIDTH 3 0
BBX 3 14 -1 -2
BITMAP
60
60
00
60
60
60
60
60
60
60
60
60
E0
C0
ENDCHAR
STARTCHAR k
ENCODING 107
SWIDTH 278 0
DWIDTH 6 0
BBX 5 12 0 0
BITMAP
C0
C0
C0
D8
D8
F0
E0
F0
F8
D8
D8
D8
ENDCHAR
STARTCHAR l
ENCODING 108
SWIDTH 148 0
DWIDTH 3 0
BBX 2 12 0 0
BITMAP
C0
C0
C0
C0
C0
C0
C0
C0
C0
C0
C0
C0
ENDCHAR
STARTCHAR m
ENCODING 109
SWIDTH 426 0
DWIDTH 9 0
BBX 8 9 0 0
BITMAP
DB
FF
FF
DB
DB
DB
DB
DB
DB
ENDCHAR
STARTCHAR n
ENCODING 110
SWIDTH 278 0
DWIDTH 6 0
BBX 5 9 0 0
BITMAP
B0
F8
D8
D8
D8
D8
D8
D8
D8
ENDCHAR
STARTCHAR o
ENCODING 111
SWIDTH 278 0
DWIDTH 6 0
BBX 5 9 0 0
BITMAP
70
F8
D8
D8
D8
D8
D8
F8
70
ENDCHAR
STARTCHAR p
ENCODING 112
SWIDTH 278 0
DWIDTH 6 0
BBX 5 11 0 -2
BITMAP
B0
F8
D8
D8
D8
D8
D8
F8
F0
C0
C0
ENDCHAR
STARTCHAR q
ENCODING 113
SWIDTH 278 0
DWIDTH 6 0
BBX 5 11 0 -2
BITMAP
68
F8
F8
D8
D8
D8
D8
F8
78
18
18
ENDCHAR
STARTCHAR r
ENCODING 114
SWIDTH 278 0
DWIDTH 6 0
BBX 5 9 0 0
BITMAP
D0
F8
F8
D8
C0
C0
C0
C0
C0
ENDCHAR
STARTCHAR s
ENCODING 115
SWIDTH 278 0
DWIDTH 6 0
BBX 5 9 0 0
BITMAP
70
F8
D8
E0
70
38
D8
F8
70
ENDCHAR
STARTCHAR t
ENCODING 116
SWIDTH 167 0
DWIDTH 4 0
BBX 4 11 -1 0
BITMAP
60
60
F0
F0
60
60
60
60
60
70
30
ENDCHAR
STARTCHAR u
ENCODING 117
SWIDTH 278 0
DWIDTH 6 0
BBX 5 9 0 0
BITMAP
D8
D8
D8
D8
D8
D8
D8
F8
78
ENDCHAR
STARTCHAR v
ENCODING 118
SWIDTH 278 0
DWIDTH 6 0
BBX 5 9 0 0
BITMAP
D8
D8
D8
D8
D8
D8
50
70
70
ENDCHAR
STARTCHAR w
ENCODING 119
SWIDTH 444 0
DWIDTH 9 0
BBX 8 9 0 0
BITMAP
DB
DB
DB
DB
DB
FF
66
66
66
ENDCHAR
STARTCHAR x
ENCODING 120
SWIDTH 259 0
DWIDTH 6 0
BBX 5 9 0 0
BITMAP
D8
D8
D8
70
70
D8
D8
D8
D8
ENDCHAR
STARTCHAR y
ENCODING 121
SWIDTH 278 0
DWIDTH 6 0
BBX 5 11 0 -2
BITMAP
D8
D8
D8
D8
D8
78
70
30
30
70
60
ENDCHAR
STARTCHAR z
ENCODING 122
SWIDTH 222 0
DWIDTH 5 0
BBX 4 9 0 0
BITMAP
F0
F0
30
60
60
60
C0
F0
F0
ENDCHAR
STARTCHAR braceleft
ENCODING 123
SWIDTH 333 0
DWIDTH 5 0
BBX 4 13 0 -1
BITMAP
30
70
60
60
60
60
C0
60
60
60
60
70
30
ENDCHAR
STARTCHAR bar
ENCODING 124
SWIDTH 222 0
DWIDTH 4 0
BBX 2 12 1 0
BITMAP
C0
C0
C0
C0
C0
C0
C0
C0
C0
C0
C0
C0
ENDCHAR
STARTCHAR braceright
ENCODING 125
SWIDTH 333 0
DWIDTH 5 0
BBX 4 13 0 -1
BITMAP
C0
E0
60
60
60
60
30
60
60
60
60
E0
C0
ENDCHAR
STARTCHAR asciitilde
ENCODING 126
SWIDTH 500 0
DWIDTH 11 0
BBX 9 3 1 3
BITMAP
7180
FF80
C700
ENDCHAR
STARTCHAR uni007F
ENCODING 127
SWIDTH 166 0
DWIDTH 255 0
BBX 1 1 253 -5
BITMAP
00
ENDCHAR
STARTCHAR Adieresis
ENCODING 128
SWIDTH 333 0
DWIDTH 6 0
BBX 5 12 0 0
BITMAP
D8
D8
00
70
70
50
D8
D8
F8
D8
D8
D8
ENDCHAR
STARTCHAR Aring
ENCODING 129
SWIDTH 333 0
DWIDTH 6 0
BBX 5 13 0 0
BITMAP
20
50
50
20
70
70
50
D8
D8
F8
D8
D8
D8
ENDCHAR
STARTCHAR Ccedilla
ENCODING 130
SWIDTH 333 0
DWIDTH 6 0
BBX 5 14 0 -2
BITMAP
70
F8
D8
D8
C0
C0
C0
D8
D8
D8
F8
70
20
60
ENDCHAR
STARTCHAR Eacute
ENCODING 131
SWIDTH 278 0
DWIDTH 5 0
BBX 4 13 0 0
BITMAP
30
60
C0
00
F0
F0
C0
F0
F0
C0
C0
F0
F0
ENDCHAR
STARTCHAR Ntilde
ENCODING 132
SWIDTH 389 0
DWIDTH 7 0
BBX 6 12 0 0
BITMAP
68
58
00
CC
CC
EC
EC
FC
DC
DC
CC
CC
ENDCHAR
STARTCHAR Odieresis
ENCODING 133
SWIDTH 333 0
DWIDTH 6 0
BBX 5 12 0 0
BITMAP
D8
D8
00
70
F8
D8
D8
D8
D8
D8
F8
70
ENDCHAR
STARTCHAR Udieresis
ENCODING 134
SWIDTH 333 0
DWIDTH 6 0
BBX 5 12 0 0
BITMAP
D8
D8
00
D8
D8
D8
D8
D8
D8
D8
F8
70
ENDCHAR
STARTCHAR aacute
ENCODING 135
SWIDTH 278 0
DWIDTH 6 0
BBX 5 13 0 0
BITMAP
18
30
60
00
70
F8
D8
38
78
D8
D8
F8
68
ENDCHAR
STARTCHAR agrave
ENCODING 136
SWIDTH 278 0
DWIDTH 6 0
BBX 5 13 0 0
BITMAP
C0
60
30
00
70
F8
D8
38
78
D8
D8
F8
68
ENDCHAR
STARTCHAR acircumflex
ENCODING 137
SWIDTH 278 0
DWIDTH 6 0
BBX 5 13 0 0
BITMAP
60
F0
90
00
70
F8
D8
38
78
D8
D8
F8
68
ENDCHAR
STARTCHAR adieresis
ENCODING 138
SWIDTH 278 0
DWIDTH 6 0
BBX 5 12 0 0
BITMAP
D8
D8
00
70
F8
D8
38
78
D8
D8
F8
68
ENDCHAR
STARTCHAR atilde
ENCODING 139
SWIDTH 278 0
DWIDTH 6 0
BBX 5 12 0 0
BITMAP
D0
B0
00
70
F8
D8
38
78
D8
D8
F8
68
ENDCHAR
STARTCHAR aring
ENCODING 140
SWIDTH 278 0
DWIDTH 6 0
BBX 5 13 0 0
BITMAP
20
50
50
20
70
F8
D8
38
78
D8
D8
F8
68
ENDCHAR
STARTCHAR ccedilla
ENCODING 141
SWIDTH 278 0
DWIDTH 6 0
BBX 5 11 0 -2
BITMAP
70
F8
D8
C0
C0
D8
D8
F8
70
20
60
ENDCHAR
STARTCHAR eacute
ENCODING 142
SWIDTH 278 0
DWIDTH 6 0
BBX 5 13 0 0
BITMAP
18
30
60
00
70
F8
D8
D8
F8
C0
D8
F8
70
ENDCHAR
STARTCHAR egrave
ENCODING 143
SWIDTH 278 0
DWIDTH 6 0
BBX 5 13 0 0
BITMAP
C0
60
30
00
70
F8
D8
D8
F8
C0
D8
F8
70
ENDCHAR
STARTCHAR ecircumflex
ENCODING 144
SWIDTH 278 0
DWIDTH 6 0
BBX 5 13 0 0
BITMAP
30
78
48
00
70
F8
D8
D8
F8
C0
D8
F8
70
ENDCHAR
STARTCHAR edieresis
ENCODING 145
SWIDTH 278 0
DWIDTH 6 0
BBX 5 12 0 0
BITMAP
D8
D8
00
70
F8
D8
D8
F8
C0
D8
F8
70
ENDCHAR
STARTCHAR iacute
ENCODING 146
SWIDTH 148 0
DWIDTH 3 0
BBX 4 13 0 0
BITMAP
30
60
C0
00
C0
C0
C0
C0
C0
C0
C0
C0
C0
ENDCHAR
STARTCHAR igrave
ENCODING 147
SWIDTH 148 0
DWIDTH 3 0
BBX 4 13 -2 0
BITMAP
C0
60
30
00
30
30
30
30
30
30
30
30
30
ENDCHAR
STARTCHAR icircumflex
ENCODING 148
SWIDTH 148 0
DWIDTH 3 0
BBX 4 13 -1 0
BITMAP
60
F0
90
00
60
60
60
60
60
60
60
60
60
ENDCHAR
STARTCHAR idieresis
ENCODING 149
SWIDTH 148 0
DWIDTH 3 0
BBX 5 12 -1 0
BITMAP
D8
D8
00
60
60
60
60
60
60
60
60
60
ENDCHAR
STARTCHAR ntilde
ENCODING 150
SWIDTH 278 0
DWIDTH 6 0
BBX 5 12 0 0
BITMAP
D0
B0
00
B0
F8
D8
D8
D8
D8
D8
D8
D8
ENDCHAR
STARTCHAR oacute
ENCODING 151
SWIDTH 278 0
DWIDTH 6 0
BBX 5 13 0 0
BITMAP
18
30
60
00
70
F8
D8
D8
D8
D8
D8
F8
70
ENDCHAR
STARTCHAR ograve
ENCODING 152
SWIDTH 278 0
DWIDTH 6 0
BBX 5 13 0 0
BITMAP
C0
60
30
00
70
F8
D8
D8
D8
D8
D8
F8
70
ENDCHAR
STARTCHAR ocircumflex
ENCODING 153
SWIDTH 278 0
DWIDTH 6 0
BBX 5 13 0 0
BITMAP
60
F0
90
00
70
F8
D8
D8
D8
D8
D8
F8
70
ENDCHAR
STARTCHAR odieresis
ENCODING 154
SWIDTH 278 0
DWIDTH 6 0
BBX 5 12 0 0
BITMAP
D8
D8
00
70
F8
D8
D8
D8
D8
D8
F8
70
ENDCHAR
STARTCHAR otilde
ENCODING 155
SWIDTH 278 0
DWIDTH 6 0
BBX 5 12 0 0
BITMAP
D0
B0
00
70
F8
D8
D8
D8
D8
D8
F8
70
ENDCHAR
STARTCHAR uacute
ENCODING 156
SWIDTH 278 0
DWIDTH 6 0
BBX 5 13 0 0
BITMAP
18
30
60
00
D8
D8
D8
D8
D8
D8
D8
F8
78
ENDCHAR
STARTCHAR ugrave
ENCODING 157
SWIDTH 278 0
DWIDTH 6 0
BBX 5 13 0 0
BITMAP
C0
60
30
00
D8
D8
D8
D8
D8
D8
D8
F8
78
ENDCHAR
STARTCHAR ucircumflex
ENCODING 158
SWIDTH 278 0
DWIDTH 6 0
BBX 5 13 0 0
BITMAP
30
78
48
00
D8
D8
D8
D8
D8
D8
D8
F8
78
ENDCHAR
STARTCHAR udieresis
ENCODING 159
SWIDTH 278 0
DWIDTH 6 0
BBX 5 12 0 0
BITMAP
D8
D8
00
D8
D8
D8
D8
D8
D8
D8
F8
78
ENDCHAR
STARTCHAR dagger
ENCODING 160
SWIDTH 333 0
DWIDTH 6 0
BBX 4 13 1 -1
BITMAP
60
60
60
F0
F0
60
60
60
60
60
60
60
60
ENDCHAR
STARTCHAR degree
ENCODING 161
SWIDTH 400 0
DWIDTH 8 0
BBX 5 5 1 7
BITMAP
70
D8
88
D8
70
ENDCHAR
STARTCHAR cent
ENCODING 162
SWIDTH 333 0
DWIDTH 6 0
BBX 5 14 0 -2
BITMAP
30
30
70
F8
D8
D8
C0
C0
D8
D8
F8
70
30
30
ENDCHAR
STARTCHAR sterling
ENCODING 163
SWIDTH 333 0
DWIDTH 6 0
BBX 6 12 0 0
BITMAP
70
F8
D8
C0
60
F8
F8
60
60
60
FC
FC
ENDCHAR
STARTCHAR section
ENCODING 164
SWIDTH 333 0
DWIDTH 6 0
BBX 5 13 0 -1
BITMAP
70
D8
D8
60
F0
B0
D8
68
78
30
D8
D8
70
ENDCHAR
STARTCHAR bullet
ENCODING 165
SWIDTH 500 0
DWIDTH 9 0
BBX 4 4 2 4
BITMAP
60
F0
F0
60
ENDCHAR
STARTCHAR paragraph
ENCODING 166
SWIDTH 600 0
DWIDTH 11 0
BBX 9 13 1 -1
BITMAP
7F80
FF00
FB00
FB00
FB00
7B00
1B00
1B00
1B00
1B00
1B00
1B00
1B00
ENDCHAR
STARTCHAR germandbls
ENCODING 167
SWIDTH 278 0
DWIDTH 6 0
BBX 5 13 0 -1
BITMAP
70
F8
D8
D8
D8
F0
F0
D8
D8
D8
D8
D8
30
ENDCHAR
STARTCHAR registered
ENCODING 168
SWIDTH 800 0
DWIDTH 15 0
BBX 13 12 1 0
BITMAP
1FC0
3FE0
7070
6FB0
CFD8
CCD8
CF98
CFD8
6CF0
7070
3FE0
1FC0
ENDCHAR
STARTCHAR copyright
ENCODING 169
SWIDTH 800 0
DWIDTH 15 0
BBX 13 12 1 0
BITMAP
1FC0
3FE0
7070
6730
CF98
CC98
CC18
CF98
6730
7070
3FE0
1FC0
ENDCHAR
STARTCHAR trademark
ENCODING 170
SWIDTH 990 0
DWIDTH 18 0
BBX 16 8 0 4
BITMAP
FD83
FD83
31C7
31EF
31FF
31BB
31BB
3193
ENDCHAR
STARTCHAR acute
ENCODING 171
SWIDTH 148 0
DWIDTH 3 0
BBX 4 3 0 10
BITMAP
30
60
C0
ENDCHAR
STARTCHAR dieresis
ENCODING 172
SWIDTH 148 0
DWIDTH 3 0
BBX 5 2 -1 10
BITMAP
D8
D8
ENDCHAR
STARTCHAR notequal
ENCODING 173
SWIDTH 549 0
DWIDTH 10 0
BBX 8 9 1 0
BITMAP
0C
0C
FF
FF
18
FF
FF
30
30
ENDCHAR
STARTCHAR AE
ENCODING 174
SWIDTH 481 0
DWIDTH 9 0
BBX 8 12 0 0
BITMAP
1F
1F
3C
3C
2F
6F
6C
7C
FC
CC
CF
CF
ENDCHAR
STARTCHAR Oslash
ENCODING 175
SWIDTH 333 0
DWIDTH 6 0
BBX 7 14 -1 -1
BITMAP
06
3C
7C
6C
6C
7C
7C
7C
6C
6C
6C
7C
78
C0
ENDCHAR
STARTCHAR infinity
ENCODING 176
SWIDTH 713 0
DWIDTH 13 0
BBX 12 5 0 3
BITMAP
79E0
CF30
8610
CF30
79E0
ENDCHAR
STARTCHAR plusminus
ENCODING 177
SWIDTH 500 0
DWIDTH 11 0
BBX 10 10 0 0
BITMAP
0C00
0C00
0C00
FFC0
FFC0
0C00
0C00
0C00
FFC0
FFC0
ENDCHAR
STARTCHAR lessequal
ENCODING 178
SWIDTH 549 0
DWIDTH 10 0
BBX 9 11 0 0
BITMAP
0380
0F00
3C00
F000
F000
3C00
0F00
0380
0000
FF80
FF80
ENDCHAR
STARTCHAR greaterequal
ENCODING 179
SWIDTH 549 0
DWIDTH 10 0
BBX 9 11 0 0
BITMAP
E000
7800
1E00
0780
0780
1E00
7800
E000
0000
FF80
FF80
ENDCHAR
STARTCHAR yen
ENCODING 180
SWIDTH 333 0
DWIDTH 6 0
BBX 6 12 0 0
BITMAP
D8
D8
D8
D8
D8
70
FC
30
FC
30
30
30
ENDCHAR
STARTCHAR mu
ENCODING 181
SWIDTH 278 0
DWIDTH 6 0
BBX 5 11 0 -2
BITMAP
D8
D8
D8
D8
D8
D8
D8
F8
F8
C0
C0
ENDCHAR
STARTCHAR partialdiff
ENCODING 182
SWIDTH 494 0
DWIDTH 9 0
BBX 7 12 1 0
BITMAP
78
8C
06
06
3E
66
C6
C6
C6
C4
EC
78
ENDCHAR
STARTCHAR summation
ENCODING 183
SWIDTH 713 0
DWIDTH 13 0
BBX 12 15 0 -3
BITMAP
FFE0
E060
7020
3800
1C00
0E00
0700
0600
0C00
1800
3000
6010
C030
FFF0
FFF0
ENDCHAR
STARTCHAR product
ENCODING 184
SWIDTH 823 0
DWIDTH 15 0
BBX 14 15 0 -3
BITMAP
FFFC
7878
3030
3030
3030
3030
3030
3030
3030
3030
3030
3030
3030
7878
FCFC
ENDCHAR
STARTCHAR pi
ENCODING 185
SWIDTH 549 0
DWIDTH 10 0
BBX 9 8 0 0
BITMAP
7F80
FF80
9200
1200
1200
3280
7380
6300
ENDCHAR
STARTCHAR integral
ENCODING 186
SWIDTH 274 0
DWIDTH 6 0
BBX 6 15 0 -3
BITMAP
1C
3C
30
30
30
30
30
30
30
30
30
30
30
E0
E0
ENDCHAR
STARTCHAR ordfeminine
ENCODING 187
SWIDTH 167 0
DWIDTH 5 0
BBX 4 5 0 7
BITMAP
E0
30
F0
B0
D0
ENDCHAR
STARTCHAR ordmasculine
ENCODING 188
SWIDTH 167 0
DWIDTH 4 0
BBX 3 5 0 7
BITMAP
E0
E0
A0
E0
E0
ENDCHAR
STARTCHAR Omega
ENCODING 189
SWIDTH 768 0
DWIDTH 14 0
BBX 13 12 0 0
BITMAP
0700
18C0
3060
7070
6030
6030
6030
3060
38E0
8888
F8F8
F8F8
ENDCHAR
STARTCHAR ae
ENCODING 190
SWIDTH 426 0
DWIDTH 9 0
BBX 8 9 0 0
BITMAP
76
FF
DB
3B
FF
D8
DB
FF
6E
ENDCHAR
STARTCHAR oslash
ENCODING 191
SWIDTH 278 0
DWIDTH 6 0
BBX 5 11 0 -1
BITMAP
08
78
F8
D8
F8
F8
D8
D8
F8
F0
80
ENDCHAR
STARTCHAR questiondown
ENCODING 192
SWIDTH 333 0
DWIDTH 6 0
BBX 5 12 0 -2
BITMAP
30
30
00
30
30
30
60
C0
D8
D8
F8
70
ENDCHAR
STARTCHAR exclamdown
ENCODING 193
SWIDTH 204 0
DWIDTH 4 0
BBX 2 12 1 -2
BITMAP
C0
C0
00
C0
C0
C0
C0
C0
C0
C0
C0
C0
ENDCHAR
STARTCHAR logicalnot
ENCODING 194
SWIDTH 500 0
DWIDTH 11 0
BBX 9 5 0 2
BITMAP
FF80
FF80
0180
0180
0180
ENDCHAR
STARTCHAR radical
ENCODING 195
SWIDTH 549 0
DWIDTH 10 0
BBX 9 12 0 0
BITMAP
0080
0080
0080
3080
7100
D900
1900
0D00
0D00
0600
0600
0600
ENDCHAR
STARTCHAR florin
ENCODING 196
SWIDTH 333 0
DWIDTH 6 0
BBX 6 13 0 -1
BITMAP
1C
3C
30
30
78
78
30
30
30
60
60
E0
C0
ENDCHAR
STARTCHAR approxequal
ENCODING 197
SWIDTH 549 0
DWIDTH 10 0
BBX 8 7 1 1
BITMAP
73
FF
CE
00
73
FF
CE
ENDCHAR
STARTCHAR Delta
ENCODING 198
SWIDTH 612 0
DWIDTH 11 0
BBX 11 12 0 0
BITMAP
0400
0400
0E00
0E00
1300
1300
2180
2180
40C0
40C0
8060
FFE0
ENDCHAR
STARTCHAR guillemotleft
ENCODING 199
SWIDTH 333 0
DWIDTH 7 0
BBX 6 7 0 1
BITMAP
24
6C
6C
D8
6C
6C
24
ENDCHAR
STARTCHAR guillemotright
ENCODING 200
SWIDTH 333 0
DWIDTH 7 0
BBX 6 7 0 1
BITMAP
90
D8
D8
6C
D8
D8
90
ENDCHAR
STARTCHAR ellipsis
ENCODING 201
SWIDTH 1000 0
DWIDTH 18 0
BBX 14 2 2 0
BITMAP
C30C
C30C
ENDCHAR
STARTCHAR uni00A0
ENCODING 202
SWIDTH 166 0
DWIDTH 3 0
BBX 1 1 0 -5
BITMAP
00
ENDCHAR
STARTCHAR Agrave
ENCODING 203
SWIDTH 333 0
DWIDTH 6 0
BBX 5 13 0 0
BITMAP
C0
60
30
00
70
70
50
D8
D8
F8
D8
D8
D8
ENDCHAR
STARTCHAR Atilde
ENCODING 204
SWIDTH 333 0
DWIDTH 6 0
BBX 5 12 0 0
BITMAP
D0
B0
00
70
70
50
D8
D8
F8
D8
D8
D8
ENDCHAR
STARTCHAR Otilde
ENCODING 205
SWIDTH 333 0
DWIDTH 6 0
BBX 5 12 0 0
BITMAP
D0
B0
00
70
F8
D8
D8
D8
D8
D8
F8
70
ENDCHAR
STARTCHAR OE
ENCODING 206
SWIDTH 444 0
DWIDTH 8 0
BBX 7 12 0 0
BITMAP
7E
FE
D8
D8
DE
DE
D8
D8
D8
D8
FE
7E
ENDCHAR
STARTCHAR oe
ENCODING 207
SWIDTH 426 0
DWIDTH 9 0
BBX 8 9 0 0
BITMAP
66
FF
DB
DB
DF
D8
DB
FF
66
ENDCHAR
STARTCHAR endash
ENCODING 208
SWIDTH 500 0
DWIDTH 9 0
BBX 9 2 0 4
BITMAP
FF80
FF80
ENDCHAR
STARTCHAR emdash
ENCODING 209
SWIDTH 1000 0
DWIDTH 18 0
BBX 18 2 0 4
BITMAP
FFFFC0
FFFFC0
ENDCHAR
STARTCHAR quotedblleft
ENCODING 210
SWIDTH 315 0
DWIDTH 6 0
BBX 7 3 0 9
BITMAP
D8
6C
36
ENDCHAR
STARTCHAR quotedblright
ENCODING 211
SWIDTH 315 0
DWIDTH 6 0
BBX 7 3 -1 9
BITMAP
36
6C
D8
ENDCHAR
STARTCHAR quoteleft
ENCODING 212
SWIDTH 167 0
DWIDTH 3 0
BBX 4 3 0 9
BITMAP
C0
60
30
ENDCHAR
STARTCHAR quoteright
ENCODING 213
SWIDTH 167 0
DWIDTH 3 0
BBX 4 3 -1 9
BITMAP
30
60
C0
ENDCHAR
STARTCHAR divide
ENCODING 214
SWIDTH 500 0
DWIDTH 11 0
BBX 10 8 0 1
BITMAP
0C00
0C00
0000
FFC0
FFC0
0000
0C00
0C00
ENDCHAR
STARTCHAR lozenge
ENCODING 215
SWIDTH 494 0
DWIDTH 9 0
BBX 9 12 0 0
BITMAP
0800
1C00
3600
3600
6300
C180
C180
6300
3600
3600
1C00
0800
ENDCHAR
STARTCHAR ydieresis
ENCODING 216
SWIDTH 278 0
DWIDTH 6 0
BBX 5 14 0 -2
BITMAP
D8
D8
00
D8
D8
D8
D8
D8
78
70
30
30
70
60
ENDCHAR
STARTCHAR Ydieresis
ENCODING 217
SWIDTH 333 0
DWIDTH 6 0
BBX 5 12 0 0
BITMAP
D8
D8
00
D8
D8
D8
D8
F8
70
30
30
30
ENDCHAR
STARTCHAR fraction
ENCODING 218
SWIDTH 167 0
DWIDTH 3 0
BBX 7 12 -2 0
BITMAP
06
06
0C
0C
18
18
30
30
60
60
C0
C0
ENDCHAR
STARTCHAR currency
ENCODING 219
SWIDTH 333 0
DWIDTH 6 0
BBX 5 7 0 2
BITMAP
88
70
D8
88
D8
70
88
ENDCHAR
STARTCHAR guilsinglleft
ENCODING 220
SWIDTH 185 0
DWIDTH 4 0
BBX 3 7 0 1
BITMAP
20
60
60
C0
60
60
20
ENDCHAR
STARTCHAR guilsinglright
ENCODING 221
SWIDTH 185 0
DWIDTH 4 0
BBX 3 7 0 1
BITMAP
80
C0
C0
60
C0
C0
80
ENDCHAR
STARTCHAR uniFB01
ENCODING 222
SWIDTH 315 0
DWIDTH 6 0
BBX 6 12 -1 0
BITMAP
3C
7C
60
60
FC
FC
6C
6C
6C
6C
6C
6C
ENDCHAR
STARTCHAR uniFB02
ENCODING 223
SWIDTH 315 0
DWIDTH 6 0
BBX 6 12 -1 0
BITMAP
3C
7C
6C
6C
FC
FC
6C
6C
6C
6C
6C
6C
ENDCHAR
STARTCHAR daggerdbl
ENCODING 224
SWIDTH 333 0
DWIDTH 6 0
BBX 4 13 1 -1
BITMAP
60
60
60
F0
F0
60
60
60
F0
F0
60
60
60
ENDCHAR
STARTCHAR periodcentered
ENCODING 225
SWIDTH 166 0
DWIDTH 3 0
BBX 2 2 0 4
BITMAP
C0
C0
ENDCHAR
STARTCHAR quotesinglbase
ENCODING 226
SWIDTH 167 0
DWIDTH 3 0
BBX 3 3 -1 -1
BITMAP
60
60
C0
ENDCHAR
STARTCHAR quotedblbase
ENCODING 227
SWIDTH 315 0
DWIDTH 6 0
BBX 6 3 -1 -1
BITMAP
6C
6C
D8
ENDCHAR
STARTCHAR perthousand
ENCODING 228
SWIDTH 778 0
DWIDTH 12 0
BBX 10 12 1 0
BITMAP
4200
E400
A400
A800
E800
5000
1480
2FC0
2B40
4B40
4FC0
8480
ENDCHAR
STARTCHAR Acircumflex
ENCODING 229
SWIDTH 333 0
DWIDTH 6 0
BBX 5 13 0 0
BITMAP
60
F0
90
00
70
70
50
D8
D8
F8
D8
D8
D8
ENDCHAR
STARTCHAR Ecircumflex
ENCODING 230
SWIDTH 278 0
DWIDTH 5 0
BBX 4 13 0 0
BITMAP
60
F0
90
00
F0
F0
C0
F0
F0
C0
C0
F0
F0
ENDCHAR
STARTCHAR Aacute
ENCODING 231
SWIDTH 333 0
DWIDTH 6 0
BBX 5 13 0 0
BITMAP
18
30
60
00
70
70
50
D8
D8
F8
D8
D8
D8
ENDCHAR
STARTCHAR Edieresis
ENCODING 232
SWIDTH 278 0
DWIDTH 5 0
BBX 5 12 0 0
BITMAP
D8
D8
00
F0
F0
C0
F0
F0
C0
C0
F0
F0
ENDCHAR
STARTCHAR Egrave
ENCODING 233
SWIDTH 278 0
DWIDTH 5 0
BBX 4 13 0 0
BITMAP
C0
60
30
00
F0
F0
C0
F0
F0
C0
C0
F0
F0
ENDCHAR
STARTCHAR Iacute
ENCODING 234
SWIDTH 167 0
DWIDTH 3 0
BBX 4 13 0 0
BITMAP
30
60
C0
00
C0
C0
C0
C0
C0
C0
C0
C0
C0
ENDCHAR
STARTCHAR Icircumflex
ENCODING 235
SWIDTH 167 0
DWIDTH 3 0
BBX 4 13 -1 0
BITMAP
60
F0
90
00
60
60
60
60
60
60
60
60
60
ENDCHAR
STARTCHAR Idieresis
ENCODING 236
SWIDTH 167 0
DWIDTH 3 0
BBX 5 12 -1 0
BITMAP
D8
D8
00
60
60
60
60
60
60
60
60
60
ENDCHAR
STARTCHAR Igrave
ENCODING 237
SWIDTH 167 0
DWIDTH 3 0
BBX 4 13 -2 0
BITMAP
C0
60
30
00
30
30
30
30
30
30
30
30
30
ENDCHAR
STARTCHAR Oacute
ENCODING 238
SWIDTH 333 0
DWIDTH 6 0
BBX 5 13 0 0
BITMAP
18
30
60
00
70
F8
D8
D8
D8
D8
D8
F8
70
ENDCHAR
STARTCHAR Ocircumflex
ENCODING 239
SWIDTH 333 0
DWIDTH 6 0
BBX 5 13 0 0
BITMAP
60
F0
90
00
70
F8
D8
D8
D8
D8
D8
F8
70
ENDCHAR
STARTCHAR Ograve
ENCODING 241
SWIDTH 333 0
DWIDTH 6 0
BBX 5 13 0 0
BITMAP
C0
60
30
00
70
F8
D8
D8
D8
D8
D8
F8
70
ENDCHAR
STARTCHAR Uacute
ENCODING 242
SWIDTH 333 0
DWIDTH 6 0
BBX 5 13 0 0
BITMAP
18
30
60
00
D8
D8
D8
D8
D8
D8
D8
F8
70
ENDCHAR
STARTCHAR Ucircumflex
ENCODING 243
SWIDTH 333 0
DWIDTH 6 0
BBX 5 13 0 0
BITMAP
60
F0
90
00
D8
D8
D8
D8
D8
D8
D8
F8
70
ENDCHAR
STARTCHAR Ugrave
ENCODING 244
SWIDTH 333 0
DWIDTH 6 0
BBX 5 13 0 0
BITMAP
C0
60
30
00
D8
D8
D8
D8
D8
D8
D8
F8
70
ENDCHAR
STARTCHAR dotlessi
ENCODING 245
SWIDTH 148 0
DWIDTH 3 0
BBX 2 9 0 0
BITMAP
C0
C0
C0
C0
C0
C0
C0
C0
C0
ENDCHAR
STARTCHAR circumflex
ENCODING 246
SWIDTH 148 0
DWIDTH 3 0
BBX 4 3 -1 10
BITMAP
60
F0
90
ENDCHAR
STARTCHAR tilde
ENCODING 247
SWIDTH 148 0
DWIDTH 3 0
BBX 4 2 0 10
BITMAP
D0
B0
ENDCHAR
STARTCHAR macron
ENCODING 248
SWIDTH 148 0
DWIDTH 3 0
BBX 4 1 0 10
BITMAP
F0
ENDCHAR
STARTCHAR breve
ENCODING 249
SWIDTH 148 0
DWIDTH 3 0
BBX 5 3 -1 10
BITMAP
88
F8
70
ENDCHAR
STARTCHAR dotaccent
ENCODING 250
SWIDTH 148 0
DWIDTH 3 0
BBX 2 2 1 10
BITMAP
C0
C0
ENDCHAR
STARTCHAR ring
ENCODING 251
SWIDTH 148 0
DWIDTH 3 0
BBX 3 4 0 9
BITMAP
40
A0
A0
40
ENDCHAR
STARTCHAR cedilla
ENCODING 252
SWIDTH 148 0
DWIDTH 3 0
BBX 2 2 0 -2
BITMAP
40
C0
ENDCHAR
STARTCHAR hungarumlaut
ENCODING 253
SWIDTH 148 0
DWIDTH 3 0
BBX 6 2 -1 10
BITMAP
6C
D8
ENDCHAR
STARTCHAR ogonek
ENCODING 254
SWIDTH 148 0
DWIDTH 3 0
BBX 2 2 1 -2
BITMAP
80
C0
ENDCHAR
STARTCHAR caron
ENCODING 255
SWIDTH 148 0
DWIDTH 3 0
BBX 4 3 0 10
BITMAP
90
F0
60
ENDCHAR
ENDFONT
